<svg width="69" height="66" viewBox="0 0 69 66" fill="none" xmlns="http://www.w3.org/2000/svg">
<rect width="69" height="66" rx="8" fill="#CFBDAF"/>
<path d="M34 17.3C37.1013 17.3 39.625 19.8574 39.625 23H43.375C43.375 17.7617 39.1694 13.5 34 13.5C28.8306 13.5 24.625 17.7617 24.625 23V26.8H22.75C20.6819 26.8 19 28.5043 19 30.6V47.7C19 49.7957 20.6819 51.5 22.75 51.5H45.25C47.3181 51.5 49 49.7957 49 47.7V30.6C49 28.5043 47.3181 26.8 45.25 26.8H28.375V23C28.375 19.8574 30.8987 17.3 34 17.3ZM45.2538 47.7H35.875V43.3718C36.9906 42.7125 37.75 41.5003 37.75 40.1C37.75 38.0043 36.0681 36.3 34 36.3C31.9319 36.3 30.25 38.0043 30.25 40.1C30.25 41.4984 31.0094 42.7125 32.125 43.3718V47.7H22.75V30.6H45.25L45.2538 47.7Z" fill="#7A462E"/>
</svg>
