<svg width="64" height="66" viewBox="0 0 64 66" fill="none" xmlns="http://www.w3.org/2000/svg">
<rect width="64" height="65.6084" rx="8" fill="#CFBDAF"/>
<path d="M32 14C25.9742 14 21.073 18.7178 21.073 24.5181C21.073 30.3184 25.9742 35.0362 32 35.0362C38.0258 35.0362 42.927 30.3184 42.927 24.5181C42.927 18.7178 38.0258 14 32 14ZM31.2998 16.5184L30.3102 19.3701L34.6932 18.9281L34.2573 17.5157L35.4865 17.8433V19.4103L37.4065 19.5308L37.031 18.1246L38.0402 17.562C40.1036 19.2229 41.414 21.72 41.414 24.5181C41.414 25.8667 41.1093 27.1453 40.563 28.2943L38.3667 28.652V31.1989C37.9477 31.569 37.4948 31.9018 37.0135 32.1933L36.0707 30.7816L34.234 31.2638L34.7501 33.1883C33.8585 33.4487 32.9317 33.5806 32 33.5799C29.3932 33.5799 27.0377 32.5657 25.3348 30.924L27.0125 30.7013L28.1397 28.5716L24.5496 26.8439L27.096 24.7544L24.8837 22.9865L22.6232 23.7117C22.8848 20.8436 24.5273 18.3634 26.9095 16.8896L27.3882 20.5755L31.2998 16.5184ZM34.5678 21.7141L31.5276 23.5893L34.1842 25.8622L36.1029 25.3224L35.9257 27.5386L39.4383 26.6862L38.11 23.7882L35.9848 23.8166L37.8739 22.254L34.5679 21.7141H34.5678ZM31.4097 24.9815L29.7862 25.6633L30.9373 26.4873L31.4097 24.9815ZM27.5968 25.2367L26.4699 26.5223L29.5922 28.6347L27.5968 25.2367ZM32.6199 25.9474L31.4688 28.0217L34.2434 29.84L33.2692 28.5046L34.4794 27.1124L32.6199 25.9474ZM15.5397 28.1639C14.7986 28.1528 14.04 29.0614 14.0356 31.3907C14.029 34.9631 13.6695 35.9714 15.3869 40.0116C16.6463 42.9743 17.2111 45.2515 21.2411 47.0916C21.7185 48.7115 21.528 49.0925 21.2041 50.4768C20.9019 51.7692 24.0135 52.0068 26.2922 50.918C28.7375 49.6341 28.5323 46.0993 28.0955 43.7023C27.5874 40.9146 25.9891 40.3352 24.6036 39.1445C23.165 37.1643 22.8302 33.577 20.4971 32.1298C20.0098 31.8276 17.5241 31.5208 20.9394 39.7305C16.4365 38.657 17.2567 33.6808 16.9311 29.9964C16.8341 28.8992 16.1937 28.1736 15.5397 28.1638V28.1639ZM48.4603 28.1639C47.8063 28.1736 47.1659 28.8992 47.0689 29.9965C46.7433 33.6808 47.5635 38.657 43.0606 39.7305C46.476 31.5207 43.9902 31.8276 43.5029 32.1298C41.1698 33.577 40.8351 37.1643 39.3964 39.1446C38.011 40.3352 36.4125 40.9146 35.9046 43.7023C35.4677 46.0993 35.2625 49.6341 37.7078 50.918C39.9865 52.0067 43.0981 51.7692 42.7958 50.4768C42.472 49.0925 42.2815 48.7115 42.7589 47.0916C46.7889 45.2515 47.3537 42.9743 48.6131 40.0116C50.3305 35.9714 49.971 34.9631 49.9644 31.3908C49.96 29.0614 49.2014 28.1528 48.4603 28.1639Z" fill="#7A462E"/>
</svg>
