<svg width="21" height="23" viewBox="0 0 21 23" fill="none" xmlns="http://www.w3.org/2000/svg">
<path d="M3.29636 15.6677C3.88463 10.4734 7.24694 6.18009 11.8027 4.1118C10.731 2.39754 9.27691 1.0047 7.59657 0C1.30207 2.94407 -1.6678 10.2161 0.952809 16.6625C1.59634 18.2468 2.52664 19.6329 3.65396 20.8011C3.22549 19.1336 3.10053 17.3969 3.29636 15.6677Z" fill="#7A462E"/>
<path d="M18.5636 4.18954C11.5975 3.87993 5.48883 8.9241 4.70748 15.8221C4.42319 18.3343 4.88527 20.7586 5.91653 22.8846C6.01424 22.8976 6.10998 22.9129 6.20728 22.9235C13.1866 23.6842 19.4727 18.7501 20.248 11.9028C20.564 9.11233 19.9156 6.43465 18.5636 4.18954ZM11.7629 15.5113C9.53951 18.8903 7.47196 21.4615 7.14513 21.2548C6.81917 21.0478 8.35775 18.1414 10.5827 14.7628C12.8069 11.3838 14.8745 8.81252 15.2009 9.01921C15.5277 9.2263 13.9883 12.1326 11.7629 15.5113Z" fill="#7A462E"/>
</svg>
