<svg width="29" height="29" viewBox="0 0 29 29" fill="none" xmlns="http://www.w3.org/2000/svg">
<path opacity="0.5" d="M14.5 29C22.5081 29 29 22.5081 29 14.5C29 6.49187 22.5081 0 14.5 0C6.49187 0 0 6.49187 0 14.5C0 22.5081 6.49187 29 14.5 29Z" fill="#7A462E"/>
<path d="M9.53813 10.7987C9.2666 7.77658 6.93601 4.96052 5.80465 3.93027L5.17969 3.39574C7.70063 1.27654 10.9536 0 14.5047 0C17.714 0 20.68 1.0427 23.0821 2.80781C23.4214 3.83808 22.7749 5.99079 22.0962 7.02106C21.8503 7.39423 21.2928 7.85752 20.6814 8.2967C19.3032 9.28692 17.5639 9.77668 16.6797 11.6C16.4268 12.1213 16.4377 12.6307 16.5592 13.0736C16.6467 13.3919 16.7025 13.738 16.7034 14.0766C16.7063 15.1712 15.5992 15.9619 14.5047 15.95C11.6565 15.919 9.79193 13.6235 9.53813 10.7987Z" fill="#7A462E"/>
<path d="M16.5861 23.6002C18.0188 20.9001 22.7945 20.9001 22.7945 20.9001C27.7709 20.8482 28.4432 17.8267 28.8925 16.2996C28.0882 22.7976 22.9848 27.9629 16.5165 28.8615C16.0487 27.8769 15.4945 25.657 16.5861 23.6002Z" fill="#7A462E"/>
</svg>
