<svg width="31" height="15" viewBox="0 0 31 15" fill="none" xmlns="http://www.w3.org/2000/svg">
<path d="M29.5209 14.5495H24.5205C24.0116 14.5495 23.5531 14.248 23.3583 13.7769C23.1636 13.312 23.2641 12.7717 23.6222 12.4074L27.3411 8.62554C27.4102 8.51874 27.4793 8.36169 27.4793 8.16066C27.4793 7.6895 27.0961 7.30629 26.6249 7.30629C26.1538 7.30629 25.7706 7.6895 25.7706 8.16066C25.7706 8.85797 25.2052 9.41708 24.5142 9.41708C23.8169 9.41708 23.2578 8.85169 23.2578 8.16066C23.2578 6.30116 24.7718 4.79346 26.6249 4.79346C28.4781 4.79346 29.9921 6.30744 29.9921 8.16066C29.9921 8.90195 29.7534 9.61182 29.3073 10.2023C29.2759 10.2463 29.2382 10.284 29.2005 10.3217L27.517 12.0304H29.5209C30.2182 12.0304 30.7773 12.5958 30.7773 13.2868C30.7773 13.9904 30.2182 14.5495 29.5209 14.5495Z" fill="#7A462E"/>
<path d="M17.0745 12.095C13.7388 12.095 11.0312 9.38118 11.0312 6.05168C11.0312 2.71588 13.7451 0.00830078 17.0745 0.00830078C20.4102 0.00830078 23.1177 2.72217 23.1177 6.05168C23.1177 9.38118 20.4102 12.095 17.0745 12.095ZM17.0745 2.52114C15.1271 2.52114 13.544 4.10423 13.544 6.05168C13.544 7.99912 15.1271 9.58221 17.0745 9.58221C19.0219 9.58221 20.605 7.99912 20.605 6.05168C20.605 4.10423 19.0219 2.52114 17.0745 2.52114Z" fill="#7A462E"/>
<path d="M5.92389 11.848C2.65727 11.848 0 9.1907 0 5.92402C0 2.65733 2.65727 0 5.92389 0C7.79591 0 9.5737 0.89834 10.6856 2.40604C11.1002 2.96515 10.9809 3.75041 10.4218 4.16503C9.86267 4.57965 9.07743 4.46029 8.66282 3.90118C8.00949 3.02169 7.01066 2.51912 5.92389 2.51912C4.04558 2.51912 2.51906 4.04567 2.51906 5.92402C2.51906 7.80236 4.04558 9.32891 5.92389 9.32891C6.88503 9.32891 7.77706 8.93942 8.43039 8.22954C8.90153 7.72069 9.69934 7.683 10.2082 8.15416C10.717 8.62531 10.7547 9.42314 10.2836 9.93199C9.15909 11.1507 7.57604 11.848 5.92389 11.848Z" fill="#7A462E"/>
</svg>
