<svg width="67" height="67" viewBox="0 0 67 67" fill="none" xmlns="http://www.w3.org/2000/svg">
<rect width="67" height="67" rx="8" fill="#CFBDAF"/>
<path d="M43.9749 32.2564C45.225 29.8517 45.7648 27.0605 45.5163 24.2866C45.1489 20.1534 43.1047 16.4998 39.7633 14L37.4953 17.8598C39.792 19.5789 41.1897 22.0277 41.4319 24.75C41.5436 26.0152 41.4041 27.2925 41.0235 28.4892C40.6429 29.6859 40.0308 30.7718 39.2317 31.6679L36.7852 34.4295L40.106 35.53C48.792 38.4029 48.8926 48.2631 48.8926 48.3628H52.9975C52.9975 44.218 51.0354 36.1185 43.9749 32.2564Z" fill="#7A462E"/>
<path d="M29.3934 34.4655C33.9211 34.4655 37.6033 30.3092 37.6033 25.1984C37.6033 20.0875 33.9211 15.9312 29.3934 15.9312C24.8657 15.9312 21.1836 20.0875 21.1836 25.1984C21.1836 30.3092 24.8657 34.4655 29.3934 34.4655ZM29.3934 20.5648C31.6573 20.5648 33.4983 22.6429 33.4983 25.1984C33.4983 27.7538 31.6573 29.832 29.3934 29.832C27.1296 29.832 25.2885 27.7538 25.2885 25.1984C25.2885 22.6429 27.1296 20.5648 29.3934 20.5648ZM32.4721 36.7823H26.3147C19.5232 36.7823 14 43.0169 14 50.6831V52.9999H18.1049V50.6831C18.1049 45.5723 21.787 41.4159 26.3147 41.4159H32.4721C36.9998 41.4159 40.6819 45.5723 40.6819 50.6831V52.9999H44.7869V50.6831C44.7869 43.0169 39.2637 36.7823 32.4721 36.7823Z" fill="#7A462E"/>
</svg>
