<svg width="69" height="65" viewBox="0 0 69 65" fill="none" xmlns="http://www.w3.org/2000/svg">
<rect width="69" height="64.9031" rx="8" fill="#CFBDAF"/>
<path d="M53.8664 20.3667L41.5663 14.2167C41.2815 14.0742 40.9674 14 40.649 14C40.3305 14 40.0164 14.0742 39.7316 14.2167L28.35 19.9096L16.9664 14.2167C16.6537 14.0605 16.3064 13.9868 15.9573 14.0026C15.6081 14.0184 15.2689 14.1232 14.9716 14.3071C14.6744 14.4909 14.4291 14.7477 14.2591 15.053C14.089 15.3583 13.9998 15.702 14 16.0515V42.7015C14 43.4784 14.4387 44.1877 15.1337 44.5362L27.4337 50.6862C27.7185 50.8287 28.0325 50.9029 28.351 50.9029C28.6695 50.9029 28.9836 50.8287 29.2684 50.6862L40.65 44.9934L52.0336 50.6842C52.3454 50.8419 52.6925 50.9166 53.0415 50.9012C53.3905 50.8857 53.7297 50.7806 54.0262 50.596C54.631 50.2209 55 49.5628 55 48.8515V22.2015C55 21.4245 54.5613 20.7152 53.8664 20.3667ZM30.4 23.4684L38.6 19.3684V41.4346L30.4 45.5346V23.4684ZM18.1 19.3684L26.3 23.4684V45.5346L18.1 41.4346V19.3684ZM50.9 45.5346L42.7 41.4346V19.3684L50.9 23.4684V45.5346Z" fill="#7A462E"/>
</svg>
