<svg width="63" height="65" viewBox="0 0 63 65" fill="none" xmlns="http://www.w3.org/2000/svg">
<rect width="62.6258" height="64.3917" rx="8" fill="#CFBDAF"/>
<path d="M48.3264 14L46.1264 14.7333C42.356 16.0433 38.3297 16.4453 34.3748 15.9067C30.2189 15.2617 25.9651 15.8348 22.1281 17.5567C20.094 18.4228 18.3088 19.784 16.9351 21.5163C15.5614 23.2486 14.6429 25.297 14.2631 27.475C13.8767 29.5695 13.9163 31.7204 14.3793 33.7992C14.8423 35.8781 15.7194 37.8425 16.9581 39.575C16.8481 39.96 16.7381 40.345 16.6464 40.73C15.9018 43.8962 15.5326 47.1391 15.5464 50.3917H19.2131C19.3854 47.7294 19.7469 45.0827 20.2948 42.4717C22.8384 43.8452 25.6909 44.5457 28.5814 44.5067C31.2773 44.5048 33.9454 43.9625 36.4281 42.9117C50.3798 36.9533 48.5464 17.135 48.5464 16.31L48.3264 14ZM34.9981 39.5383C30.2131 41.5733 24.4931 41.225 21.2848 38.7133C21.827 36.9002 22.5711 35.1537 23.5031 33.5067C24.2276 32.3213 25.0824 31.2205 26.0514 30.225C27.0416 29.2188 28.1568 28.3439 29.3698 27.6217C31.8761 26.123 34.6556 25.1383 37.5464 24.725V22.8917C34.2204 22.7765 30.9147 23.4553 27.9031 24.8717C24.8239 26.3742 22.2125 28.6877 20.3498 31.5633C19.6589 32.6616 19.0463 33.8073 18.5164 34.9917C17.6667 32.818 17.4258 30.4537 17.8198 28.1533C18.0778 26.5428 18.7417 25.0245 19.7489 23.7415C20.756 22.4586 22.0732 21.4531 23.5764 20.82C25.7684 19.7955 28.1602 19.2695 30.5798 19.28C31.7164 19.28 32.8348 19.39 34.0081 19.4817C37.6827 19.9558 41.4135 19.7381 45.0081 18.84C44.8798 23.9 43.9631 35.725 34.9981 39.5383Z" fill="#7A462E"/>
</svg>
