<svg width="28" height="27" viewBox="0 0 28 27" fill="none" xmlns="http://www.w3.org/2000/svg">
<path d="M18.5 8H15.5C14.9477 8 14.5 8.44772 14.5 9V12H18.5C18.6137 11.9975 18.7216 12.0504 18.7892 12.1419C18.8568 12.2334 18.8758 12.352 18.84 12.46L18.1 14.66C18.0318 14.8619 17.8431 14.9984 17.63 15H14.5V22.5C14.5 22.7761 14.2761 23 14 23H11.5C11.2239 23 11 22.7761 11 22.5V15H9.5C9.22386 15 9 14.7761 9 14.5V12.5C9 12.2239 9.22386 12 9.5 12H11V9C11 6.79086 12.7909 5 15 5H18.5C18.7761 5 19 5.22386 19 5.5V7.5C19 7.77614 18.7761 8 18.5 8Z" fill="white"/>
</svg>
