<svg width="371" height="208" viewBox="0 0 371 208" fill="none" xmlns="http://www.w3.org/2000/svg">
<path d="M131.295 159.896C135.841 175.804 152.13 177.697 168.799 197.772C172.215 201.887 170.697 208 164.632 208C121.071 195.88 112.278 161.413 121.066 134.142C133.221 106.264 166.964 97.6092 211.792 100.542C217.181 100.895 222.544 102.295 227.135 105.14C273.911 134.114 243.927 188.586 216.152 199.289C211.192 201.201 202.59 197.244 208.954 190.578C240.494 162.507 232.08 137.294 219.686 124.792C217.467 122.554 214.725 120.911 211.636 120.286C196.989 117.319 161.243 118.496 152.888 124.671C144.175 131.11 127.658 147.169 131.295 159.896Z" fill="#8C5038"/>
<path d="M186.839 148.341C192.528 141.606 201.752 141.546 209.51 141.803C213.242 141.926 217.318 142.511 218.646 146C219.453 148.121 219.982 150.823 220.31 153.493C220.902 158.312 219.393 163.588 214.805 165.177C209.741 166.93 202.295 167.007 192.311 166.767C194.896 173 199.382 181.641 195.947 189.205C194.521 192.344 190.776 193.76 187.711 192.182C184.446 190.5 181.73 187.606 181.73 185.192L180.818 168.408C177.949 169.945 172.708 170.734 166.829 170.354C157.209 169.733 146.562 163.029 148.981 153.698C149.281 152.54 149.79 151.561 150.535 150.895C160.386 144.145 173.157 143.233 179.724 149.07L178.995 131.375L186.839 148.341ZM184.22 180.632C188.307 176.546 192.49 177.957 194.071 179.173L190.058 167.314C186.227 163.301 186.409 156.368 186.226 155.456L182.214 144.146L184.22 180.632Z" fill="#8C5038"/>
<path d="M191.337 152.844C191.337 149.541 193.791 146.751 197.067 146.33L207.416 145C212.434 144.354 216.878 148.263 216.878 153.323V157.283C216.878 160.91 213.937 163.851 210.31 163.851H196.445C193.624 163.851 191.337 161.564 191.337 158.742V152.844Z" fill="#FF9574"/>
<path d="M177.95 156.46C177.385 152.102 173.678 148.838 169.284 148.829L161.502 148.813C156.432 148.802 152.511 153.255 153.162 158.283L153.28 159.191C153.953 164.387 158.711 168.053 163.907 167.38L174.044 166.066C176.842 165.704 178.816 163.142 178.453 160.344L177.95 156.46Z" fill="#FF9574"/>
<path d="M139.358 191.16L142.415 193.903" stroke="#FF9574" stroke-linecap="round"/>
<path d="M120.464 163.984L121.868 167.844" stroke="#FF9574" stroke-linecap="round"/>
<path d="M139.367 116.43L136.051 118.853" stroke="#FF9574" stroke-linecap="round"/>
<path d="M201.406 103.73L197.313 104.075" stroke="#FF9574" stroke-linecap="round"/>
<path d="M245.441 137.781L243.56 134.13" stroke="#FF9574" stroke-linecap="round"/>
<path d="M229.769 186.824L232.484 183.742" stroke="#FF9574" stroke-linecap="round"/>
<path d="M143.465 194.469L146.522 197.212" stroke="#FF9574" stroke-linecap="round"/>
<path d="M122.531 168.836L123.935 172.696" stroke="#FF9574" stroke-linecap="round"/>
<path d="M135.282 119.766L131.966 122.189" stroke="#FF9574" stroke-linecap="round"/>
<path d="M196.182 104.453L192.09 104.798" stroke="#FF9574" stroke-linecap="round"/>
<path d="M242.777 133.223L240.897 129.571" stroke="#FF9574" stroke-linecap="round"/>
<path d="M233.039 182.684L235.753 179.601" stroke="#FF9574" stroke-linecap="round"/>
<path d="M141.732 188.332L144.789 191.075" stroke="#FF9574" stroke-linecap="round"/>
<path d="M123.891 162.605L125.295 166.465" stroke="#FF9574" stroke-linecap="round"/>
<path d="M141.649 119.336L138.333 121.759" stroke="#FF9574" stroke-linecap="round"/>
<path d="M201.843 107.398L197.75 107.743" stroke="#FF9574" stroke-linecap="round"/>
<path d="M242.213 139.582L240.332 135.93" stroke="#FF9574" stroke-linecap="round"/>
<path d="M226.913 184.477L229.628 181.394" stroke="#FF9574" stroke-linecap="round"/>
<path d="M145.929 192.004L148.986 194.747" stroke="#FF9574" stroke-linecap="round"/>
<path d="M125.865 167.82L127.269 171.68" stroke="#FF9574" stroke-linecap="round"/>
<path d="M137.185 122.688L133.869 125.111" stroke="#FF9574" stroke-linecap="round"/>
<path d="M196.288 107.938L192.196 108.282" stroke="#FF9574" stroke-linecap="round"/>
<path d="M239.594 134.656L237.714 131.005" stroke="#FF9574" stroke-linecap="round"/>
<path d="M230.545 180.246L233.26 177.164" stroke="#FF9574" stroke-linecap="round"/>
<path d="M143.956 185.648L147.013 188.391" stroke="#FF9574" stroke-linecap="round"/>
<path d="M127.116 161.289L128.52 165.149" stroke="#FF9574" stroke-linecap="round"/>
<path d="M143.808 122.062L140.492 124.486" stroke="#FF9574" stroke-linecap="round"/>
<path d="M202.27 110.852L198.177 111.196" stroke="#FF9574" stroke-linecap="round"/>
<path d="M239.183 141.297L237.303 137.645" stroke="#FF9574" stroke-linecap="round"/>
<path d="M224.211 182.281L226.926 179.199" stroke="#FF9574" stroke-linecap="round"/>
<path d="M148.394 189.539L151.451 192.282" stroke="#FF9574" stroke-linecap="round"/>
<path d="M129.199 166.809L130.603 170.669" stroke="#FF9574" stroke-linecap="round"/>
<path d="M139.088 125.602L135.772 128.025" stroke="#FF9574" stroke-linecap="round"/>
<path d="M196.397 111.418L192.305 111.762" stroke="#FF9574" stroke-linecap="round"/>
<path d="M236.421 136.078L234.54 132.426" stroke="#FF9574" stroke-linecap="round"/>
<path d="M228.062 177.809L230.777 174.726" stroke="#FF9574" stroke-linecap="round"/>
<path d="M146.177 182.965L149.234 185.708" stroke="#FF9574" stroke-linecap="round"/>
<path d="M130.341 159.965L131.745 163.825" stroke="#FF9574" stroke-linecap="round"/>
<path d="M145.978 124.797L142.661 127.22" stroke="#FF9574" stroke-linecap="round"/>
<path d="M202.699 114.316L198.607 114.661" stroke="#FF9574" stroke-linecap="round"/>
<path d="M236.145 143.016L234.265 139.364" stroke="#FF9574" stroke-linecap="round"/>
<path d="M221.503 180.078L224.218 176.996" stroke="#FF9574" stroke-linecap="round"/>
<path d="M150.858 187.074L153.915 189.817" stroke="#FF9574" stroke-linecap="round"/>
<path d="M132.533 165.793L133.937 169.653" stroke="#FF9574" stroke-linecap="round"/>
<path d="M140.991 128.52L137.675 130.943" stroke="#FF9574" stroke-linecap="round"/>
<path d="M196.506 114.902L192.414 115.247" stroke="#FF9574" stroke-linecap="round"/>
<path d="M233.241 137.512L231.361 133.86" stroke="#FF9574" stroke-linecap="round"/>
<path d="M225.572 175.367L228.287 172.285" stroke="#FF9574" stroke-linecap="round"/>
<path d="M187.444 0C191.31 0 194.444 3.13401 194.444 7V61.6387C194.444 69.8227 206.085 71.3568 208.205 63.4521L222.362 10.6699C223.363 6.93715 227.2 4.72226 230.934 5.72168L235.296 6.88965C239.032 7.88982 241.249 11.7296 240.247 15.4648L226.098 68.2109C223.977 76.116 234.825 80.6136 238.92 73.5273L266.258 26.2207C268.191 22.8757 272.469 21.73 275.815 23.6602L279.729 25.917C283.08 27.8497 284.228 32.1333 282.293 35.4824L254.969 82.7646C250.874 89.8512 260.187 97.0035 265.978 91.2188L304.641 52.5918C307.374 49.8615 311.802 49.8614 314.535 52.5918L317.726 55.7793C320.462 58.5136 320.461 62.9496 317.725 65.6836L279.087 104.285C273.297 110.07 280.441 119.39 287.531 115.301L334.869 87.9961C338.216 86.0655 342.495 87.2127 344.428 90.5586L346.684 94.4639C348.618 97.8129 347.47 102.096 344.12 104.028L296.817 131.311C289.727 135.4 294.217 146.252 302.124 144.137L354.904 130.011C358.637 129.012 362.474 131.227 363.475 134.96L364.642 139.31C365.643 143.045 363.426 146.885 359.69 147.885L306.906 162.017C298.999 164.134 300.531 175.778 308.717 175.778H363.37C367.236 175.778 370.37 178.912 370.37 182.778V187.282C370.37 191.148 367.236 194.282 363.37 194.282H308.722C305.81 194.282 303.74 195.756 302.638 197.75C301.492 199.823 299.709 202 297.34 202C294.851 202 292.959 199.771 293.25 197.298C293.745 193.101 294 188.83 294 184.5C294 124.577 245.423 76 185.5 76C125.577 76 77 124.577 77 184.5C77 188.72 77.2424 192.883 77.7121 196.976C78.0152 199.618 75.9945 202 73.3353 202C70.8046 202 68.9034 199.65 67.5858 197.49C66.451 195.629 64.4372 194.282 61.6533 194.282H7C3.13401 194.282 0 191.148 0 187.282V182.778C0.000189543 178.912 3.13413 175.778 7 175.778H61.6533C69.8392 175.778 71.3713 164.134 63.4639 162.017L10.6797 147.885C6.9442 146.885 4.72789 143.045 5.72949 139.31L6.89551 134.961C7.89655 131.228 11.7334 129.012 15.4668 130.012L68.2451 144.141C76.1524 146.257 80.6434 135.406 73.5527 131.315L26.25 104.029C22.8997 102.097 21.7517 97.8129 23.6865 94.4639L25.9424 90.5586C27.8755 87.2129 32.1539 86.0664 35.501 87.9971L82.8184 115.295C89.9085 119.385 97.054 110.065 91.2637 104.279L52.6445 65.6924C49.9081 62.9582 49.9081 58.5222 52.6445 55.7881L55.8438 52.5928C58.5769 49.8619 63.0051 49.862 65.7383 52.5928L104.383 91.2041C110.173 96.9893 119.487 89.8368 115.392 82.75L88.0771 35.4824C86.1421 32.1333 87.2901 27.8496 90.6406 25.917L94.5537 23.6602C97.9007 21.7298 102.179 22.8762 104.112 26.2217L131.445 73.5264C135.54 80.6128 146.387 76.1169 144.268 68.2119L130.123 15.4639C129.122 11.7288 131.339 7.88968 135.074 6.88965L139.437 5.72168C143.17 4.72223 147.007 6.93714 148.008 10.6699L162.165 63.4521C164.285 71.3568 175.926 69.8228 175.926 61.6387V7C175.926 3.13405 179.06 7.20025e-05 182.926 0H187.444Z" fill="#8C5038"/>
</svg>
