<svg width="35" height="42" viewBox="0 0 35 42" fill="none" xmlns="http://www.w3.org/2000/svg">
<path d="M27.7941 12.3293C27.7941 15.7529 26.7647 20.3176 21.8235 22.1435C23.2647 18.2635 23.4706 14.3835 22.4412 10.7317C21 5.93874 16.2647 2.28697 12.9706 0.232844C12.1471 -0.451864 10.7059 0.461079 10.9118 1.83049C10.9118 4.34109 10.2941 7.99286 6.79412 11.8729C2.26471 16.8941 0 22.1435 0 27.1647C0 33.7835 4.11765 42 12.3529 42C4.11765 32.8706 10.2941 24.8823 10.2941 24.8823C11.9412 38.3482 20.5882 42 24.7059 42C28.2059 42 35 39.2612 35 27.3929C35 20.3176 32.3235 14.8399 30.0588 11.6446C29.4412 10.5035 28 11.1882 27.7941 12.3293Z" fill="#7A462E"/>
</svg>
