<svg width="63" height="66" viewBox="0 0 63 66" fill="none" xmlns="http://www.w3.org/2000/svg">
<rect width="63" height="66" rx="8" fill="#CFBDAF"/>
<path d="M41.7941 25.1551C41.7941 28.2526 40.7647 32.3826 35.8235 34.0346C37.2647 30.5241 37.4706 27.0136 36.4412 23.7096C35 19.3731 30.2647 16.0692 26.9706 14.2107C26.1471 13.5912 24.7059 14.4172 24.9118 15.6562C24.9118 17.9277 24.2941 21.2316 20.7941 24.7421C16.2647 29.2851 14 34.0346 14 38.5776C14 44.566 18.1176 52 26.3529 52C18.1176 43.74 24.2941 36.5126 24.2941 36.5126C25.9412 48.696 34.5882 52 38.7059 52C42.2059 52 49 49.522 49 38.7841C49 32.3826 46.3235 27.4266 44.0588 24.5356C43.4412 23.5031 42 24.1226 41.7941 25.1551Z" fill="#7A462E"/>
</svg>
