<svg width="66" height="66" viewBox="0 0 66 66" fill="none" xmlns="http://www.w3.org/2000/svg">
<rect width="66" height="66" rx="8" fill="#CFBDAF"/>
<path d="M48.5035 31.2778H45.059V20.9444H46.7812V17.5H19.2257V20.9444H20.9479V31.2778H17.5035C17.0467 31.2778 16.6087 31.4592 16.2857 31.7822C15.9627 32.1052 15.7813 32.5432 15.7812 33V48.5H50.2257V33C50.2257 32.5432 50.0442 32.1052 49.7213 31.7822C49.3983 31.4592 48.9602 31.2778 48.5035 31.2778ZM36.4479 45.0556V38.1667H29.559V45.0556H24.3924V20.9444H41.6146V45.0556H36.4479Z" fill="#7A462E"/>
<path d="M27.8359 24.3889H31.2804V27.8334H27.8359V24.3889ZM34.7248 24.3889H38.1693V27.8334H34.7248V24.3889ZM27.8359 31.2778H31.2804V34.7222H27.8359V31.2778ZM34.7248 31.2778H38.1693V34.7222H34.7248V31.2778Z" fill="#7A462E"/>
</svg>
