<svg width="28" height="27" viewBox="0 0 28 27" fill="none" xmlns="http://www.w3.org/2000/svg">
<path fill-rule="evenodd" clip-rule="evenodd" d="M18 5H10C7.23858 5 5 7.23858 5 10V18C5 20.7614 7.23858 23 10 23H18C20.7614 23 23 20.7614 23 18V10C23 7.23858 20.7614 5 18 5ZM21.25 18C21.2445 19.7926 19.7926 21.2445 18 21.25H10C8.20735 21.2445 6.75549 19.7926 6.75 18V10C6.75549 8.20735 8.20735 6.75549 10 6.75H18C19.7926 6.75549 21.2445 8.20735 21.25 10V18ZM18.75 10.25C19.3023 10.25 19.75 9.80228 19.75 9.25C19.75 8.69772 19.3023 8.25 18.75 8.25C18.1977 8.25 17.75 8.69772 17.75 9.25C17.75 9.80228 18.1977 10.25 18.75 10.25ZM14 9.5C11.5147 9.5 9.5 11.5147 9.5 14C9.5 16.4853 11.5147 18.5 14 18.5C16.4853 18.5 18.5 16.4853 18.5 14C18.5027 12.8057 18.0294 11.6596 17.1849 10.8151C16.3404 9.97059 15.1943 9.49734 14 9.5ZM11.25 14C11.25 15.5188 12.4812 16.75 14 16.75C15.5188 16.75 16.75 15.5188 16.75 14C16.75 12.4812 15.5188 11.25 14 11.25C12.4812 11.25 11.25 12.4812 11.25 14Z" fill="white"/>
</svg>
