<svg width="63" height="66" viewBox="0 0 63 66" fill="none" xmlns="http://www.w3.org/2000/svg">
<rect width="63" height="66" rx="8" fill="#CFBDAF"/>
<path d="M15.75 52H47.2495C47.5574 52.0001 47.8599 51.9022 48.1264 51.7162C48.3929 51.5302 48.6141 51.2626 48.7674 50.9405C48.9208 50.6184 49.001 50.2532 49 49.8817C48.9989 49.5103 48.9167 49.1457 48.7615 48.8249L36.5117 23.4916C35.8834 22.1932 34.116 22.1974 33.486 23.4916L27.7653 35.3222L25.9803 31.8769C25.8232 31.5744 25.6048 31.325 25.3459 31.1522C25.0869 30.9794 24.7958 30.8888 24.4998 30.8889C24.2033 30.8892 23.91 30.9805 23.6507 31.154C23.3915 31.3276 23.173 31.5778 23.0159 31.8811L14.266 48.77C14.1004 49.0896 14.0088 49.4568 14.0006 49.8335C13.9924 50.2102 14.0679 50.5827 14.2194 50.9123C14.3708 51.2419 14.5926 51.5166 14.8618 51.7079C15.1309 51.8991 15.4376 52 15.75 52ZM34.9997 28.7461L44.2028 47.7778H34.221L29.8705 39.3608L34.9997 28.7461ZM24.5016 36.9794L30.0945 47.7778H18.9087L24.5016 36.9794ZM20.9999 26.6667C23.8944 26.6667 26.2498 23.8251 26.2498 20.3333C26.2498 16.8416 23.8944 14 20.9999 14C18.1054 14 15.75 16.8416 15.75 20.3333C15.75 23.8251 18.1054 26.6667 20.9999 26.6667ZM20.9999 18.2222C21.464 18.2222 21.9091 18.4446 22.2373 18.8406C22.5655 19.2365 22.7499 19.7734 22.7499 20.3333C22.7499 20.8932 22.5655 21.4302 22.2373 21.8261C21.9091 22.222 21.464 22.4444 20.9999 22.4444C20.5358 22.4444 20.0907 22.222 19.7625 21.8261C19.4343 21.4302 19.2499 20.8932 19.2499 20.3333C19.2499 19.7734 19.4343 19.2365 19.7625 18.8406C20.0907 18.4446 20.5358 18.2222 20.9999 18.2222Z" fill="#7A462E"/>
</svg>
