<svg width="35" height="37" viewBox="0 0 35 37" fill="none" xmlns="http://www.w3.org/2000/svg">
<path d="M34.3264 0L32.1264 0.733333C28.356 2.04333 24.3297 2.44533 20.3748 1.90667C16.2189 1.26172 11.9651 1.83483 8.12809 3.55667C6.09397 4.42282 4.3088 5.78401 2.93512 7.51632C1.56145 9.24862 0.642893 11.297 0.263088 13.475C-0.123255 15.5695 -0.0837344 17.7204 0.379291 19.7992C0.842316 21.8781 1.71936 23.8425 2.95809 25.575C2.84809 25.96 2.73809 26.345 2.64642 26.73C1.9018 29.8962 1.53259 33.1391 1.54642 36.3917H5.21309C5.38542 33.7294 5.74689 31.0827 6.29475 28.4717C8.83838 29.8452 11.6909 30.5457 14.5814 30.5067C17.2773 30.5048 19.9454 29.9625 22.4281 28.9117C36.3798 22.9533 34.5464 3.135 34.5464 2.31L34.3264 0ZM20.9981 25.5383C16.2131 27.5733 10.4931 27.225 7.28475 24.7133C7.827 22.9002 8.5711 21.1537 9.50309 19.5067C10.2276 18.3213 11.0824 17.2205 12.0514 16.225C13.0416 15.2188 14.1568 14.3439 15.3698 13.6217C17.8761 12.123 20.6556 11.1383 23.5464 10.725V8.89167C20.2204 8.77653 16.9147 9.45526 13.9031 10.8717C10.8239 12.3742 8.21247 14.6877 6.34975 17.5633C5.6589 18.6616 5.04627 19.8073 4.51642 20.9917C3.66671 18.818 3.42585 16.4537 3.81975 14.1533C4.07784 12.5428 4.74173 11.0245 5.74888 9.74154C6.75602 8.45855 8.07325 7.45312 9.57642 6.82C11.7684 5.79546 14.1602 5.26951 16.5798 5.28C17.7164 5.28 18.8348 5.39 20.0081 5.48167C23.6827 5.95577 27.4135 5.73814 31.0081 4.84C30.8798 9.9 29.9631 21.725 20.9981 25.5383Z" fill="#7A462E"/>
</svg>
