<svg width="28" height="27" viewBox="0 0 28 27" fill="none" xmlns="http://www.w3.org/2000/svg">
<path fill-rule="evenodd" clip-rule="evenodd" d="M7 5H21C22.1046 5 23 5.89543 23 7V21C23 22.1046 22.1046 23 21 23H7C5.89543 23 5 22.1046 5 21V7C5 5.89543 5.89543 5 7 5ZM10 20C10.2761 20 10.5 19.7761 10.5 19.5V12.5C10.5 12.2239 10.2761 12 10 12H8.5C8.22386 12 8 12.2239 8 12.5V19.5C8 19.7761 8.22386 20 8.5 20H10ZM9.25 11C8.42157 11 7.75 10.3284 7.75 9.5C7.75 8.67157 8.42157 8 9.25 8C10.0784 8 10.75 8.67157 10.75 9.5C10.75 10.3284 10.0784 11 9.25 11ZM19.5 20C19.7761 20 20 19.7761 20 19.5V14.9C20.0325 13.3108 18.8576 11.9545 17.28 11.76C16.177 11.6593 15.1083 12.1744 14.5 13.1V12.5C14.5 12.2239 14.2761 12 14 12H12.5C12.2239 12 12 12.2239 12 12.5V19.5C12 19.7761 12.2239 20 12.5 20H14C14.2761 20 14.5 19.7761 14.5 19.5V15.75C14.5 14.9216 15.1716 14.25 16 14.25C16.8284 14.25 17.5 14.9216 17.5 15.75V19.5C17.5 19.7761 17.7239 20 18 20H19.5Z" fill="white"/>
</svg>
