<svg width="66" height="66" viewBox="0 0 66 66" fill="none" xmlns="http://www.w3.org/2000/svg">
<rect width="66" height="66" rx="8" fill="#CFBDAF"/>
<path d="M47.2188 33V43.6667C47.2188 44.1382 47.0315 44.5903 46.6981 44.9237C46.3647 45.2571 45.9125 45.4444 45.441 45.4444C44.9695 45.4444 44.5173 45.2571 44.1839 44.9237C43.8505 44.5903 43.6632 44.1382 43.6632 43.6667V18.7778C43.6632 18.3063 43.4759 17.8541 43.1425 17.5207C42.8091 17.1873 42.3569 17 41.8854 17H16.9965C16.525 17 16.0728 17.1873 15.7394 17.5207C15.4061 17.8541 15.2188 18.3063 15.2188 18.7778V43.6667C15.2188 46.6071 17.6116 49 20.5521 49H45.441C48.3814 49 50.7743 46.6071 50.7743 43.6667V33H47.2188ZM36.5521 31.2222V34.7778H22.3299V31.2222H36.5521ZM22.3299 27.6667V24.1111H36.5521V27.6667H22.3299ZM36.5521 38.3333V41.8889H31.2188V38.3333H36.5521Z" fill="#7A462E"/>
</svg>
