<svg width="66" height="66" viewBox="0 0 66 66" fill="none" xmlns="http://www.w3.org/2000/svg">
<rect width="66" height="66" rx="8" fill="#CFBDAF"/>
<path d="M32.4284 14.0706C32.2475 13.8893 32.0326 13.7454 31.7961 13.6474C31.5595 13.5493 31.3058 13.499 31.0497 13.4993H21.2999C21.0438 13.499 20.7902 13.5493 20.5536 13.6474C20.317 13.7454 20.1021 13.8893 19.9213 14.0706L14.0713 19.9205C13.8899 20.1013 13.746 20.3162 13.648 20.5528C13.5499 20.7894 13.4996 21.043 13.5 21.2991V31.049C13.5 31.5677 13.7047 32.063 14.0713 32.4276L33.571 51.9273C33.7517 52.109 33.9665 52.2532 34.2031 52.3516C34.4397 52.45 34.6934 52.5007 34.9497 52.5007C35.2059 52.5007 35.4596 52.45 35.6962 52.3516C35.9328 52.2532 36.1476 52.109 36.3283 51.9273L51.9281 36.3276C52.1093 36.1466 52.2531 35.9317 52.3512 35.6952C52.4493 35.4586 52.4998 35.205 52.4998 34.9489C52.4998 34.6928 52.4493 34.4393 52.3512 34.2027C52.2531 33.9661 52.1093 33.7512 51.9281 33.5703L32.4284 14.0706ZM34.9497 47.7914L17.3999 30.2417V22.1064L22.1072 17.3992H30.2424L47.7922 34.9489L34.9497 47.7914Z" fill="#7A462E"/>
<path d="M25.8835 29.099C27.6572 29.099 29.0951 27.6611 29.0951 25.8874C29.0951 24.1137 27.6572 22.6758 25.8835 22.6758C24.1098 22.6758 22.6719 24.1137 22.6719 25.8874C22.6719 27.6611 24.1098 29.099 25.8835 29.099Z" fill="#7A462E"/>
</svg>
