<svg width="61" height="61" viewBox="0 0 61 61" fill="none" xmlns="http://www.w3.org/2000/svg">
<rect width="61" height="61" rx="8" fill="#CFBDAF"/>
<path d="M15.8333 47H47V43.3333H17.6667V14H14V45.1667C14 45.6529 14.1932 46.1192 14.537 46.463C14.8808 46.8068 15.3471 47 15.8333 47Z" fill="#7A462E"/>
<path d="M26.8346 26.8333C28.8597 26.8333 30.5013 25.1917 30.5013 23.1667C30.5013 21.1416 28.8597 19.5 26.8346 19.5C24.8096 19.5 23.168 21.1416 23.168 23.1667C23.168 25.1917 24.8096 26.8333 26.8346 26.8333Z" fill="#7A462E"/>
<path d="M41.4987 34.1666C43.5237 34.1666 45.1654 32.525 45.1654 30.4999C45.1654 28.4749 43.5237 26.8333 41.4987 26.8333C39.4737 26.8333 37.832 28.4749 37.832 30.4999C37.832 32.525 39.4737 34.1666 41.4987 34.1666Z" fill="#7A462E"/>
<path d="M29.582 36C31.1008 36 32.332 34.7688 32.332 33.25C32.332 31.7312 31.1008 30.5 29.582 30.5C28.0632 30.5 26.832 31.7312 26.832 33.25C26.832 34.7688 28.0632 36 29.582 36Z" fill="#7A462E"/>
<path d="M38.75 23.1667C40.2688 23.1667 41.5 21.9355 41.5 20.4167C41.5 18.898 40.2688 17.6667 38.75 17.6667C37.2312 17.6667 36 18.898 36 20.4167C36 21.9355 37.2312 23.1667 38.75 23.1667Z" fill="#7A462E"/>
</svg>
