<svg width="62" height="62" viewBox="0 0 62 62" fill="none" xmlns="http://www.w3.org/2000/svg">
<rect width="62" height="62" rx="8" fill="#CFBDAF"/>
<path d="M29.5248 14.7024L23.4444 22.3047L17.3641 14.7024C17.1185 14.3988 16.7851 14.1786 16.4094 14.0719C16.0338 13.9653 15.6344 13.9775 15.2659 14.1068C14.8975 14.2361 14.578 14.4762 14.3514 14.7943C14.1248 15.1123 14.002 15.4927 14 15.8832V44.2216C14 46.3054 15.6943 48 17.7778 48H44.2222C46.3057 48 48 46.3054 48 44.2216V15.8832C47.998 15.4927 47.8752 15.1123 47.6486 14.7943C47.422 14.4762 47.1025 14.2361 46.7341 14.1068C46.3656 13.9775 45.9662 13.9653 45.5906 14.0719C45.2149 14.1786 44.8815 14.3988 44.6359 14.7024L38.5556 22.3047L32.4752 14.7024C31.7556 13.8069 30.2444 13.8069 29.5248 14.7024ZM17.7778 44.2216V40.4431H44.2241V44.2216H17.7778ZM37.0803 26.5101C37.8 27.4075 39.313 27.4075 40.0327 26.5101L44.2222 21.2694L44.2241 36.6647H17.7778V21.2694L21.9692 26.5101C22.6889 27.4075 24.2019 27.4075 24.9216 26.5101L31 18.9078L37.0803 26.5101Z" fill="#7A462E"/>
</svg>
