<svg width="67" height="67" viewBox="0 0 67 67" fill="none" xmlns="http://www.w3.org/2000/svg">
<rect width="67" height="67" rx="8" fill="#CFBDAF"/>
<path d="M48.1157 25.2174C48.0896 24.9439 47.9942 24.6815 47.8388 24.4549C47.6833 24.2284 47.4727 24.0451 47.2269 23.9223L34.2707 17.4223C34.0453 17.3084 33.7964 17.2489 33.5439 17.2483C33.2914 17.2477 33.0423 17.3062 32.8164 17.419L19.7725 23.919C19.2899 24.1628 18.9567 24.6292 18.8885 25.1654C18.8674 25.323 17.0279 40.9945 32.7676 49.5534C33.0096 49.6854 33.2812 49.7533 33.5568 49.7507C33.8324 49.7482 34.1028 49.6752 34.3422 49.5388C49.4661 40.9929 48.1775 25.8577 48.1157 25.2174ZM33.5281 46.2514C22.3806 39.7352 21.9256 29.4294 22.0507 26.4183L33.5411 20.6934L44.9129 26.3988C44.921 29.4375 44.1312 39.7937 33.5281 46.2514Z" fill="#7A462E"/>
</svg>
