<svg width="34" height="37" viewBox="0 0 34 37" fill="none" xmlns="http://www.w3.org/2000/svg">
<path d="M33.0601 8.9908C33.0305 8.68219 32.923 8.38616 32.7476 8.13055C32.5721 7.87495 32.3346 7.66816 32.0572 7.52964L17.4401 0.196304C17.1858 0.0678625 16.905 0.000641191 16.6201 4.56451e-06C16.3352 -0.000632062 16.0541 0.0653338 15.7992 0.192637L1.08305 7.52597C0.538553 7.80097 0.16272 8.32714 0.0857196 8.93214C0.0618863 9.10997 -2.01345 26.7906 15.7442 36.4468C16.0172 36.5957 16.3237 36.6723 16.6346 36.6694C16.9455 36.6665 17.2506 36.5842 17.5207 36.4303C34.5836 26.7888 33.1297 9.71314 33.0601 8.9908ZM16.6022 32.7215C4.02555 25.3698 3.51222 13.7428 3.65339 10.3456L16.6169 3.8868L29.4466 10.3236C29.4557 13.752 28.5647 25.4358 16.6022 32.7215Z" fill="#7A462E"/>
</svg>
