<svg width="28" height="27" viewBox="0 0 28 27" fill="none" xmlns="http://www.w3.org/2000/svg">
<path d="M22.9737 8.2174C22.5093 8.83692 21.9479 9.37733 21.3112 9.81776C21.3112 9.97959 21.3112 10.1414 21.3112 10.3123C21.3163 13.2511 20.1424 16.0691 18.0527 18.1345C15.9629 20.1999 13.1321 21.3399 10.1949 21.2989C8.49685 21.3046 6.82053 20.9169 5.29728 20.1661C5.21514 20.1302 5.16217 20.049 5.16248 19.9593V19.8604C5.16248 19.7313 5.26709 19.6267 5.39613 19.6267C7.06528 19.5716 8.67488 18.9929 9.9972 17.9724C8.48639 17.9419 7.12705 17.0469 6.50146 15.6707C6.46987 15.5956 6.4797 15.5093 6.52743 15.4432C6.57515 15.3771 6.65386 15.3407 6.73511 15.3471C7.19428 15.3932 7.65804 15.3505 8.10106 15.2212C6.43325 14.875 5.18007 13.4904 5.00072 11.7957C4.99435 11.7144 5.03078 11.6357 5.09686 11.5879C5.16293 11.5402 5.2491 11.5303 5.32424 11.562C5.7718 11.7595 6.25495 11.8635 6.7441 11.8676C5.2827 10.9085 4.65147 9.08405 5.20741 7.42622C5.2648 7.26513 5.40267 7.14612 5.57036 7.11294C5.73804 7.07975 5.91082 7.13728 6.02518 7.26439C7.99725 9.36325 10.7069 10.614 13.5828 10.7528C13.5092 10.4589 13.473 10.1568 13.475 9.85372C13.5019 8.26472 14.4851 6.84921 15.9643 6.26987C17.4434 5.69054 19.1258 6.06203 20.2239 7.21044C20.9723 7.06785 21.6959 6.81645 22.3716 6.46421C22.4211 6.43331 22.4839 6.43331 22.5334 6.46421C22.5643 6.51373 22.5643 6.57652 22.5334 6.62604C22.2061 7.37552 21.6532 8.00412 20.9518 8.42419C21.566 8.35296 22.1694 8.20807 22.7491 7.99264C22.7979 7.95942 22.862 7.95942 22.9108 7.99264C22.9517 8.01134 22.9823 8.04711 22.9944 8.09042C23.0065 8.13373 22.9989 8.18018 22.9737 8.2174Z" fill="white"/>
</svg>
